<?xml version="1.0" encoding="utf-8"?>
<!-- Generator: Adobe Illustrator 22.0.1, SVG Export Plug-In . SVG Version: 6.00 Build 0)  -->
<svg version="1.1" id="Layer_1" xmlns="http://www.w3.org/2000/svg" xmlns:xlink="http://www.w3.org/1999/xlink" x="0px" y="0px"
	 width="25px" height="25px" viewBox="0 0 25 25" style="enable-background:new 0 0 25 25;" xml:space="preserve">
<g>
	<path d="M6.5,25h11.9L17,20.5h-3.8V7.1h6.5l-3.2,7v0.1c0,2.3,1.9,4.2,4.2,4.2s4.2-1.9,4.2-4.2v-0.1l-3.8-8.3h-8V4.4l0.1,0
		c0.9-0.3,1.5-1.2,1.5-2.1c0-1.2-1-2.2-2.2-2.2c-1.2,0-2.2,1-2.2,2.2c0,0.9,0.6,1.8,1.5,2.1l0.1,0v1.3h-8L0,14.1v0.1
		c0,2.3,1.9,4.2,4.2,4.2s4.2-1.9,4.2-4.2v-0.1l-3.2-7h6.5v13.5H8L6.5,25z M16.6,23.6H8.4L9,21.9h7L16.6,23.6z M20.8,17.1
		c-1.3,0-2.4-0.9-2.8-2.1l0-0.1h5.6l0,0.1C23.2,16.2,22,17.1,20.8,17.1z M4.2,17.1c-1.3,0-2.4-0.9-2.8-2.1l0-0.1H7L7,15
		C6.7,16.2,5.5,17.1,4.2,17.1z M23.3,13.5h-5L20.8,8L23.3,13.5z M6.7,13.5h-5L4.2,8L6.7,13.5z M12.5,3.1c-0.5,0-0.9-0.4-0.9-0.9
		s0.4-0.9,0.9-0.9s0.9,0.4,0.9,0.9S13,3.1,12.5,3.1z"/>
</g>
</svg>
